<svg xmlns="http://www.w3.org/2000/svg" viewBox="0 0 980 400"><g><g><g><g><g><line x1="50" x2="45" y1="378" y2="378" style="visibility:inherit" fill="#000" stroke="#CCC" stroke-width="1"/><line x1="50" x2="45" y1="348.923" y2="348.923" style="visibility:inherit" fill="#000" stroke="#CCC" stroke-width="1"/><line x1="50" x2="45" y1="319.846" y2="319.846" style="visibility:inherit" fill="#000" stroke="#CCC" stroke-width="1"/><line x1="50" x2="45" y1="290.769" y2="290.769" style="visibility:inherit" fill="#000" stroke="#CCC" stroke-width="1"/><line x1="50" x2="45" y1="261.692" y2="261.692" style="visibility:inherit" fill="#000" stroke="#CCC" stroke-width="1"/><line x1="50" x2="45" y1="232.615" y2="232.615" style="visibility:inherit" fill="#000" stroke="#CCC" stroke-width="1"/><line x1="50" x2="45" y1="203.538" y2="203.538" style="visibility:inherit" fill="#000" stroke="#CCC" stroke-width="1"/><line x1="50" x2="45" y1="174.462" y2="174.462" style="visibility:inherit" fill="#000" stroke="#CCC" stroke-width="1"/><line x1="50" x2="45" y1="145.385" y2="145.385" style="visibility:inherit" fill="#000" stroke="#CCC" stroke-width="1"/><line x1="50" x2="45" y1="116.308" y2="116.308" style="visibility:inherit" fill="#000" stroke="#CCC" stroke-width="1"/><line x1="50" x2="45" y1="87.231" y2="87.231" style="visibility:inherit" fill="#000" stroke="#CCC" stroke-width="1"/><line x1="50" x2="45" y1="58.154" y2="58.154" style="visibility:inherit" fill="#000" stroke="#CCC" stroke-width="1"/><line x1="50" x2="45" y1="29.077" y2="29.077" style="visibility:inherit" fill="#000" stroke="#CCC" stroke-width="1"/><line x1="50" x2="45" y1="0" y2="0" style="visibility:inherit" fill="#000" stroke="#CCC" stroke-width="1"/></g><g><text x="0" y="378" dx="0em" dy=".3em" style="text-anchor:end;visibility:hidden;font-family:Roboto,sans-serif;font-size:12px;font-weight:200" fill="#32313F" stroke="none" stroke-width="1" transform="translate(40, 0)">0.89</text><text x="0" y="348.923" dx="0em" dy=".3em" style="text-anchor:end;visibility:inherit;font-family:Roboto,sans-serif;font-size:12px;font-weight:200" fill="#32313F" stroke="none" stroke-width="1" transform="translate(40, 0)">0.9</text><text x="0" y="319.846" dx="0em" dy=".3em" style="text-anchor:end;visibility:inherit;font-family:Roboto,sans-serif;font-size:12px;font-weight:200" fill="#32313F" stroke="none" stroke-width="1" transform="translate(40, 0)">0.91</text><text x="0" y="290.769" dx="0em" dy=".3em" style="text-anchor:end;visibility:inherit;font-family:Roboto,sans-serif;font-size:12px;font-weight:200" fill="#32313F" stroke="none" stroke-width="1" transform="translate(40, 0)">0.92</text><text x="0" y="261.692" dx="0em" dy=".3em" style="text-anchor:end;visibility:inherit;font-family:Roboto,sans-serif;font-size:12px;font-weight:200" fill="#32313F" stroke="none" stroke-width="1" transform="translate(40, 0)">0.93</text><text x="0" y="232.615" dx="0em" dy=".3em" style="text-anchor:end;visibility:inherit;font-family:Roboto,sans-serif;font-size:12px;font-weight:200" fill="#32313F" stroke="none" stroke-width="1" transform="translate(40, 0)">0.94</text><text x="0" y="203.538" dx="0em" dy=".3em" style="text-anchor:end;visibility:inherit;font-family:Roboto,sans-serif;font-size:12px;font-weight:200" fill="#32313F" stroke="none" stroke-width="1" transform="translate(40, 0)">0.95</text><text x="0" y="174.462" dx="0em" dy=".3em" style="text-anchor:end;visibility:inherit;font-family:Roboto,sans-serif;font-size:12px;font-weight:200" fill="#32313F" stroke="none" stroke-width="1" transform="translate(40, 0)">0.96</text><text x="0" y="145.385" dx="0em" dy=".3em" style="text-anchor:end;visibility:inherit;font-family:Roboto,sans-serif;font-size:12px;font-weight:200" fill="#32313F" stroke="none" stroke-width="1" transform="translate(40, 0)">0.97</text><text x="0" y="116.308" dx="0em" dy=".3em" style="text-anchor:end;visibility:inherit;font-family:Roboto,sans-serif;font-size:12px;font-weight:200" fill="#32313F" stroke="none" stroke-width="1" transform="translate(40, 0)">0.98</text><text x="0" y="87.231" dx="0em" dy=".3em" style="text-anchor:end;visibility:inherit;font-family:Roboto,sans-serif;font-size:12px;font-weight:200" fill="#32313F" stroke="none" stroke-width="1" transform="translate(40, 0)">0.99</text><text x="0" y="58.154" dx="0em" dy=".3em" style="text-anchor:end;visibility:inherit;font-family:Roboto,sans-serif;font-size:12px;font-weight:200" fill="#32313F" stroke="none" stroke-width="1" transform="translate(40, 0)">1</text><text x="0" y="29.077" dx="0em" dy=".3em" style="text-anchor:end;visibility:inherit;font-family:Roboto,sans-serif;font-size:12px;font-weight:200" fill="#32313F" stroke="none" stroke-width="1" transform="translate(40, 0)">1.01</text><text x="0" y="0" dx="0em" dy=".3em" style="text-anchor:end;visibility:hidden;font-family:Roboto,sans-serif;font-size:12px;font-weight:200" fill="#32313F" stroke="none" stroke-width="1" transform="translate(40, 0)">1.02</text></g><line x1="50" x2="50" y1="0" y2="378" fill="#000" stroke="#CCC" stroke-width="1"/></g></g><g clip-path="url(#clip_0)" transform="translate(50, 0)"><clipPath id="clip_0"><rect width="930" height="378"/></clipPath><g><g><g><line x1="0" x2="0" y1="0" y2="378" fill="#000" stroke="#3C3C3C" stroke-width="1" opacity=".25"/><line x1="77.5" x2="77.5" y1="0" y2="378" fill="#000" stroke="#3C3C3C" stroke-width="1" opacity=".25"/><line x1="155" x2="155" y1="0" y2="378" fill="#000" stroke="#3C3C3C" stroke-width="1" opacity=".25"/><line x1="232.5" x2="232.5" y1="0" y2="378" fill="#000" stroke="#3C3C3C" stroke-width="1" opacity=".25"/><line x1="310" x2="310" y1="0" y2="378" fill="#000" stroke="#3C3C3C" stroke-width="1" opacity=".25"/><line x1="387.5" x2="387.5" y1="0" y2="378" fill="#000" stroke="#3C3C3C" stroke-width="1" opacity=".25"/><line x1="465" x2="465" y1="0" y2="378" fill="#000" stroke="#3C3C3C" stroke-width="1" opacity=".25"/><line x1="542.5" x2="542.5" y1="0" y2="378" fill="#000" stroke="#3C3C3C" stroke-width="1" opacity=".25"/><line x1="620" x2="620" y1="0" y2="378" fill="#000" stroke="#3C3C3C" stroke-width="1" opacity=".25"/><line x1="697.5" x2="697.5" y1="0" y2="378" fill="#000" stroke="#3C3C3C" stroke-width="1" opacity=".25"/><line x1="775" x2="775" y1="0" y2="378" fill="#000" stroke="#3C3C3C" stroke-width="1" opacity=".25"/><line x1="852.5" x2="852.5" y1="0" y2="378" fill="#000" stroke="#3C3C3C" stroke-width="1" opacity=".25"/><line x1="930" x2="930" y1="0" y2="378" fill="#000" stroke="#3C3C3C" stroke-width="1" opacity=".25"/></g><g><line x1="0" x2="930" y1="378" y2="378" fill="#000" stroke="#3C3C3C" stroke-width="1" opacity=".25"/><line x1="0" x2="930" y1="348.923" y2="348.923" fill="#000" stroke="#3C3C3C" stroke-width="1" opacity=".25"/><line x1="0" x2="930" y1="319.846" y2="319.846" fill="#000" stroke="#3C3C3C" stroke-width="1" opacity=".25"/><line x1="0" x2="930" y1="290.769" y2="290.769" fill="#000" stroke="#3C3C3C" stroke-width="1" opacity=".25"/><line x1="0" x2="930" y1="261.692" y2="261.692" fill="#000" stroke="#3C3C3C" stroke-width="1" opacity=".25"/><line x1="0" x2="930" y1="232.615" y2="232.615" fill="#000" stroke="#3C3C3C" stroke-width="1" opacity=".25"/><line x1="0" x2="930" y1="203.538" y2="203.538" fill="#000" stroke="#3C3C3C" stroke-width="1" opacity=".25"/><line x1="0" x2="930" y1="174.462" y2="174.462" fill="#000" stroke="#3C3C3C" stroke-width="1" opacity=".25"/><line x1="0" x2="930" y1="145.385" y2="145.385" fill="#000" stroke="#3C3C3C" stroke-width="1" opacity=".25"/><line x1="0" x2="930" y1="116.308" y2="116.308" fill="#000" stroke="#3C3C3C" stroke-width="1" opacity=".25"/><line x1="0" x2="930" y1="87.231" y2="87.231" fill="#000" stroke="#3C3C3C" stroke-width="1" opacity=".25"/><line x1="0" x2="930" y1="58.154" y2="58.154" fill="#000" stroke="#3C3C3C" stroke-width="1" opacity=".25"/><line x1="0" x2="930" y1="29.077" y2="29.077" fill="#000" stroke="#3C3C3C" stroke-width="1" opacity=".25"/><line x1="0" x2="930" y1="0" y2="0" fill="#000" stroke="#3C3C3C" stroke-width="1" opacity=".25"/></g></g></g><g><g><line x1="0" x2="930" y1="2965.846" y2="2965.846" fill="#000" stroke="#999" stroke-width="1.5"/></g></g><g><g><line x1="77.5" x2="77.5" y1="0" y2="378" fill="#000" stroke="#999" stroke-width="1.5"/></g></g><g><g><g><g><g><path stroke="#FF7043" stroke-width="2" d="M77.5,314.38241782555184L93,277.4867913860538L108.5,269.396361068055L124,266.9814578263739L139.5,267.3840526289511L155,266.5505532041458L170.5,261.9410618749573L186,258.74838183892626L201.5,258.3899768765951L217,258.6827125866242L232.5,258.3529910012647L248,259.16298022582913L263.5,260.1508976092732L279,260.240030868932L294.5,259.2881306216509L310,256.7071229907602L325.5,255.66146627837094L341,256.0390810567817L356.5,258.2754040917019L372,256.6025507715189L387.5,255.09647017248594L403,253.69037028949157L418.5,251.841920808705L434,251.73765868451576L449.5,248.6606434495485L465,249.32649716860405L480.50000000000006,248.2188169396836L496,246.54934612548007L511.50000000000006,246.55252744868176L527,246.55443624185276L542.5,246.55558151748517L558,246.05380258771453L573.5,245.75273525541039L589,247.58175116870055L604.5,247.67436720530992L620,248.23233356171536L635.5,248.56711337187497L651,249.27037798878706L666.5,249.69233675726306L682,249.9455120177466L697.5,250.09741717382005L713,250.18856026738598L728.5,250.24324612349722L744,250.27605763715445L759.5,250.29574454534512L775,250.30755669025802L790.5,250.3146439772056L806,250.31889634937355L821.5,250.32144777267476L837,250.32297862665513" style="fill:none" fill="none"/></g><g><path stroke="#BBB" stroke-width="2" d="M108.5,401.63760451956114L124,367.88809625325695L139.5,345.22601844183527L155,332.2847923508192L170.5,322.3332089185753L186,313.47765042134466L201.5,314.35075297542085L217,311.33070815285214L232.5,310.5389325622946L248,312.5831732649258L263.5,311.29159728019766L279,305.9924767436617L294.5,306.8367971870448L310,306.3380583060074L325.5,303.52642678564405L341,304.35206061622284L356.5,307.3595933063358L372,306.65185080111405L387.5,305.72481410753437L403,300.1444330254814L418.5,300.3131255951138L434,301.92160694189056L449.5,303.3890890307279L465,303.767178026612L480.50000000000006,300.47718097519L496,300.01037601578344L511.50000000000006,297.720636237241L527,300.3661062904126L542.5,297.9340749230927L558,298.9869094852556L573.5,300.1210069231931L589,299.7966718619557L604.5,299.09967409224726L620,297.6766819671743L635.5,298.8324736350656L651,300.02834536336474L666.5,299.7410749347109L682,299.5687126779283L697.5,299.4652953240065L713,299.40324491170594L728.5,299.3660146643448L744,299.3436765159353L759.5,299.330273626892L775,299.32223189346684L790.5,299.3174068534121L806,299.31451182937957L821.5,299.3127748149602L837,299.31173260630817" style="fill:none" fill="none"/></g><g><path stroke="#07B" stroke-width="2" d="M77.5,208.63733427341174L93,186.95600718718316L108.5,202.36131887645507L124,208.91955560809896L139.5,221.94077470052787L155,220.33233064175246L170.5,216.97178017381805L186,219.74537639438984L201.5,219.70379514274842L217,217.44862258555162L232.5,219.45789954094926L248,222.22526604008624L263.5,223.33080573864103L279,219.82712521569155L294.5,216.74533711229375L310,219.18080038957086L325.5,222.2448376455945L341,227.44066847538465L356.5,226.3150323877442L372,228.19967531151474L387.5,228.82800921369963L403,228.27991860153935L418.5,227.43265400116323L434,228.8303242442928L449.5,230.4823121881943L465,234.90265837954902L480.50000000000006,228.79857712958875L496,228.23827984481116L511.50000000000006,225.9483205065755L527,225.6589319736207L542.5,222.2395812689027L558,221.20073702799138L573.5,220.0830061329593L589,219.61971807349852L604.5,221.2476916438514L620,222.09684883425138L635.5,222.50270258590874L651,221.47819515437888L666.5,221.30210862525016L682,221.23638778530065L697.5,221.19695528138797L713,221.1732957790604L728.5,221.15910007767076L744,221.1505826568396L759.5,221.14547220434216L775,221.14240593284424L790.5,221.14056616994557L806,221.13946231220615L821.5,221.1387999975623L837,221.13840260877646" style="fill:none" fill="none"/></g></g></g></g><g opacity=".2"><g><g><g><path stroke="#FF7043" stroke-width="2" d="M77.5,314.3824178255522L93,255.34941552235534L108.5,261.62954796277563L124,264.1415316141569L139.5,267.9096804031959L155,265.39752343984753L170.5,255.34941552235534L186,254.0934236966647L201.5,257.86139917373663L217,259.11739099942724L232.5,257.86139917373663L248,260.373556137085L263.5,261.62954796277563L279,260.373556137085L294.5,257.86139917373663L310,252.8374318709741L325.5,254.0934236966647L341,256.60540734804596L356.5,261.62954796277563L372,254.0934236966647L387.5,252.8374318709741L403,251.5812667333163L418.5,249.06928308193503L434,251.5812667333163L449.5,244.04514246720535L465,250.3252749076257L480.50000000000006,246.55729943055374L496,244.04514246720535L511.50000000000006,246.55729943055374L527,246.55729943055374L542.5,246.55729943055374L558,245.30113429289605L573.5,245.30113429289605L589,250.3252749076257L604.5,247.81329125624444L620,249.06928308193503L635.5,249.06928308193503L651,250.3252749076257L666.5,250.3252749076257L682,250.3252749076257L697.5,250.3252749076257L713,250.3252749076257L728.5,250.3252749076257L744,250.3252749076257L759.5,250.3252749076257L775,250.3252749076257L790.5,250.3252749076257L806,250.3252749076257L821.5,250.3252749076257L837,250.3252749076257" style="fill:none" fill="none"/></g><g><path stroke="#BBB" stroke-width="2" d="M93,389.7438337986286L108.5,347.0390718533443L124,328.1986745320834L139.5,315.63840965124285L155,314.3824178255522L170.5,308.1022853851319L186,300.56616111902093L201.5,315.63840965124285L217,306.8462935594412L232.5,309.3584505227896L248,315.63840965124285L263.5,309.3584505227896L279,298.0541774676397L294.5,308.1022853851319L310,305.5903017337506L325.5,299.3101692933303L341,305.5903017337506L356.5,311.8704341741709L372,305.5903017337506L387.5,304.33430990805994L403,291.7740450272194L418.5,300.56616111902093L434,304.33430990805994L449.5,305.5903017337506L465,304.33430990805994L480.50000000000006,295.5421938162584L496,299.3101692933303L511.50000000000006,294.28602867860064L527,304.33430990805994L542.5,294.28602867860064L558,300.56616111902093L573.5,301.82215294471155L589,299.3101692933303L604.5,298.0541774676397L620,295.5421938162584L635.5,300.56616111902093L651,301.82215294471155L666.5,299.3101692933303L682,299.3101692933303L697.5,299.3101692933303L713,299.3101692933303L728.5,299.3101692933303L744,299.3101692933303L759.5,299.3101692933303L775,299.3101692933303L790.5,299.3101692933303L806,299.3101692933303L821.5,299.3101692933303L837,299.3101692933303" style="fill:none" fill="none"/></g><g><path stroke="#07B" stroke-width="2" d="M77.5,208.63733427341174L93,173.94721093544598L108.5,217.15041809815628L124,216.63204200451193L139.5,238.9412783476023L155,218.1072734686045L170.5,212.16613923586337L186,223.78930631050702L201.5,219.6424708733192L217,214.0999541649452L232.5,222.45359097994296L248,226.36125590251046L263.5,224.9855055075426L279,214.5784685061529L294.5,212.12627748342666L310,222.8322776280917L325.5,226.83959693175103L341,235.23309549918545L356.5,224.62674973561218L372,231.02646743334262L387.5,229.77047560765197L403,227.45780071845425L418.5,226.1617738283598L434,230.92681305225085L449.5,232.96028236242444L465,241.5331588158241L480.50000000000006,219.6424708733192L496,227.39783477783206L511.50000000000006,222.51338360859802L527,225.22484933412997L542.5,217.1105563457196L558,219.6424708733192L573.5,218.40640992384698L589,218.92478601749133L604.5,223.68965192941525L620,223.37058459795443L635.5,223.1114832071158L651,219.94143401659457L666.5,221.03797883253839L682,221.13780652559726L697.5,221.13780652559726L713,221.13780652559726L728.5,221.13780652559726L744,221.13780652559726L759.5,221.13780652559726L775,221.13780652559726L790.5,221.13780652559726L806,221.13780652559726L821.5,221.13780652559726L837,221.13780652559726" style="fill:none" fill="none"/></g></g></g></g></g></g><g clip-path="url(#clip_1)" transform="translate(50, 378)"><clipPath id="clip_1"><rect width="930" height="22"/></clipPath><g><g><line x1="0" x2="0" y1="0" y2="5" style="visibility:inherit" fill="#000" stroke="#CCC" stroke-width="1"/><line x1="77.5" x2="77.5" y1="0" y2="5" style="visibility:inherit" fill="#000" stroke="#CCC" stroke-width="1"/><line x1="155" x2="155" y1="0" y2="5" style="visibility:inherit" fill="#000" stroke="#CCC" stroke-width="1"/><line x1="232.5" x2="232.5" y1="0" y2="5" style="visibility:inherit" fill="#000" stroke="#CCC" stroke-width="1"/><line x1="310" x2="310" y1="0" y2="5" style="visibility:inherit" fill="#000" stroke="#CCC" stroke-width="1"/><line x1="387.5" x2="387.5" y1="0" y2="5" style="visibility:inherit" fill="#000" stroke="#CCC" stroke-width="1"/><line x1="465" x2="465" y1="0" y2="5" style="visibility:inherit" fill="#000" stroke="#CCC" stroke-width="1"/><line x1="542.5" x2="542.5" y1="0" y2="5" style="visibility:inherit" fill="#000" stroke="#CCC" stroke-width="1"/><line x1="620" x2="620" y1="0" y2="5" style="visibility:inherit" fill="#000" stroke="#CCC" stroke-width="1"/><line x1="697.5" x2="697.5" y1="0" y2="5" style="visibility:inherit" fill="#000" stroke="#CCC" stroke-width="1"/><line x1="775" x2="775" y1="0" y2="5" style="visibility:inherit" fill="#000" stroke="#CCC" stroke-width="1"/><line x1="852.5" x2="852.5" y1="0" y2="5" style="visibility:inherit" fill="#000" stroke="#CCC" stroke-width="1"/><line x1="930" x2="930" y1="0" y2="5" style="visibility:inherit" fill="#000" stroke="#CCC" stroke-width="1"/></g><g><text x="0" y="0" dx="0em" dy=".95em" style="text-anchor:middle;visibility:hidden;font-family:Roboto,sans-serif;font-size:12px;font-weight:200" fill="#32313F" stroke="none" stroke-width="1" transform="translate(0, 8)">-5</text><text x="77.5" y="0" dx="0em" dy=".95em" style="text-anchor:middle;visibility:inherit;font-family:Roboto,sans-serif;font-size:12px;font-weight:200" fill="#32313F" stroke="none" stroke-width="1" transform="translate(0, 8)">0</text><text x="155" y="0" dx="0em" dy=".95em" style="text-anchor:middle;visibility:inherit;font-family:Roboto,sans-serif;font-size:12px;font-weight:200" fill="#32313F" stroke="none" stroke-width="1" transform="translate(0, 8)">5</text><text x="232.5" y="0" dx="0em" dy=".95em" style="text-anchor:middle;visibility:inherit;font-family:Roboto,sans-serif;font-size:12px;font-weight:200" fill="#32313F" stroke="none" stroke-width="1" transform="translate(0, 8)">10</text><text x="310" y="0" dx="0em" dy=".95em" style="text-anchor:middle;visibility:inherit;font-family:Roboto,sans-serif;font-size:12px;font-weight:200" fill="#32313F" stroke="none" stroke-width="1" transform="translate(0, 8)">15</text><text x="387.5" y="0" dx="0em" dy=".95em" style="text-anchor:middle;visibility:inherit;font-family:Roboto,sans-serif;font-size:12px;font-weight:200" fill="#32313F" stroke="none" stroke-width="1" transform="translate(0, 8)">20</text><text x="465" y="0" dx="0em" dy=".95em" style="text-anchor:middle;visibility:inherit;font-family:Roboto,sans-serif;font-size:12px;font-weight:200" fill="#32313F" stroke="none" stroke-width="1" transform="translate(0, 8)">25</text><text x="542.5" y="0" dx="0em" dy=".95em" style="text-anchor:middle;visibility:inherit;font-family:Roboto,sans-serif;font-size:12px;font-weight:200" fill="#32313F" stroke="none" stroke-width="1" transform="translate(0, 8)">30</text><text x="620" y="0" dx="0em" dy=".95em" style="text-anchor:middle;visibility:inherit;font-family:Roboto,sans-serif;font-size:12px;font-weight:200" fill="#32313F" stroke="none" stroke-width="1" transform="translate(0, 8)">35</text><text x="697.5" y="0" dx="0em" dy=".95em" style="text-anchor:middle;visibility:inherit;font-family:Roboto,sans-serif;font-size:12px;font-weight:200" fill="#32313F" stroke="none" stroke-width="1" transform="translate(0, 8)">40</text><text x="775" y="0" dx="0em" dy=".95em" style="text-anchor:middle;visibility:inherit;font-family:Roboto,sans-serif;font-size:12px;font-weight:200" fill="#32313F" stroke="none" stroke-width="1" transform="translate(0, 8)">45</text><text x="852.5" y="0" dx="0em" dy=".95em" style="text-anchor:middle;visibility:inherit;font-family:Roboto,sans-serif;font-size:12px;font-weight:200" fill="#32313F" stroke="none" stroke-width="1" transform="translate(0, 8)">50</text><text x="930" y="0" dx="0em" dy=".95em" style="text-anchor:middle;visibility:hidden;font-family:Roboto,sans-serif;font-size:12px;font-weight:200" fill="#32313F" stroke="none" stroke-width="1" transform="translate(0, 8)">55</text></g><line x1="0" x2="930" y1="0" y2="0" fill="#000" stroke="#CCC" stroke-width="1"/></g></g></g></g></svg>